<?xml version="1.0" encoding="iso-8859-1"?>
<!-- Uploaded to: SVG Repo, www.svgrepo.com, Generator: SVG Repo Mixer Tools -->
<svg height="800px" width="800px" version="1.1" id="Layer_1" xmlns="http://www.w3.org/2000/svg" xmlns:xlink="http://www.w3.org/1999/xlink" 
	 viewBox="0 0 512 512" xml:space="preserve">
<g transform="translate(1 1)">
	<path style="fill:#FFE100;" d="M459.373,50.2c0,18.773-15.36,34.133-34.133,34.133s-34.133-15.36-34.133-34.133
		s15.36-34.133,34.133-34.133S459.373,31.427,459.373,50.2"/>
	<path style="fill:#00DA6C;" d="M425.24,152.6h-29.013c-11.947,0-22.187,10.24-22.187,22.187v11.947v51.2h34.133v-51.2h17.067
		h17.067v51.2h34.133v-51.2v-11.947c0-11.947-10.24-22.187-22.187-22.187H425.24z"/>
	<g>
		<path style="fill:#FDCC00;" d="M213.613,33.133c4.267,7.68,6.827,16.213,6.827,25.6v8.533h175.787
			c-3.413-5.12-5.12-11.093-5.12-17.067s1.707-11.947,5.12-17.067H213.613z"/>
		<polygon style="fill:#FDCC00;" points="408.173,152.6 442.307,152.6 442.307,84.333 408.173,84.333 		"/>
	</g>
	<path style="fill:#FFA800;" d="M425.24,16.067c-2.56,0-5.973,0.853-8.533,0.853c14.507,3.413,25.6,17.067,25.6,33.28
		s-11.093,29.013-25.6,33.28c2.56,0,5.973,0.853,8.533,0.853c18.773,0,34.133-15.36,34.133-34.133S444.013,16.067,425.24,16.067"/>
	<path style="fill:#00AD55;" d="M454.253,152.6h-17.067c11.947,0,22.187,10.24,22.187,22.187v11.947v51.2h17.067v-51.2v-11.947
		C476.44,162.84,466.2,152.6,454.253,152.6"/>
	<polygon style="fill:#FFA800;" points="425.24,152.6 442.307,152.6 442.307,84.333 425.24,84.333 	"/>
	<g>
		<path style="fill:#FFE100;" d="M169.24,297.667L169.24,297.667c-28.16,0-51.2-23.04-51.2-51.2V58.733
			c0-28.16,23.04-51.2,51.2-51.2s51.2,23.04,51.2,51.2v187.733C220.44,274.627,197.4,297.667,169.24,297.667"/>
		<path style="fill:#FFE100;" d="M220.44,229.4v15.36c0,25.6-18.773,49.493-44.373,52.907c-30.72,3.413-58.027-20.48-58.027-51.2
			V229.4c-18.773,0-34.133,15.36-34.133,34.133v136.533h170.667V263.533C254.573,244.76,239.213,229.4,220.44,229.4"/>
	</g>
	<g>
		<polygon style="fill:#FDCC00;" points="32.707,502.467 305.773,502.467 305.773,468.333 32.707,468.333 		"/>
		<polygon style="fill:#FDCC00;" points="49.773,468.333 288.707,468.333 288.707,434.2 49.773,434.2 		"/>
		<polygon style="fill:#FDCC00;" points="66.84,434.2 271.64,434.2 271.64,400.067 66.84,400.067 		"/>
	</g>
	<g>
		<path style="fill:#FFFFFF;" d="M135.107,246.467V58.733c0-25.6,18.773-46.08,42.667-50.347c-2.56-0.853-5.973-0.853-8.533-0.853
			c-28.16,0-51.2,23.04-51.2,51.2v187.733c0,28.16,23.04,51.2,51.2,51.2c2.56,0,5.973,0,8.533-0.853
			C153.88,292.547,135.107,272.067,135.107,246.467"/>
		<path style="fill:#FFFFFF;" d="M118.04,234.52v-5.12c-18.773,0-34.133,15.36-34.133,34.133v136.533h17.067V263.533
			C100.973,250.733,107.8,239.64,118.04,234.52"/>
		<polygon style="fill:#FFFFFF;" points="32.707,502.467 49.773,502.467 49.773,468.333 32.707,468.333 		"/>
		<polygon style="fill:#FFFFFF;" points="49.773,468.333 66.84,468.333 66.84,434.2 49.773,434.2 		"/>
		<polygon style="fill:#FFFFFF;" points="66.84,434.2 83.907,434.2 83.907,400.067 66.84,400.067 		"/>
	</g>
	<path d="M305.773,511H32.707c-5.12,0-8.533-3.413-8.533-8.533v-34.133c0-5.12,3.413-8.533,8.533-8.533h273.067
		c5.12,0,8.533,3.413,8.533,8.533v34.133C314.307,507.587,310.893,511,305.773,511z M41.24,493.933h256v-17.067h-256V493.933z"/>
	<path d="M288.707,476.867H49.773c-5.12,0-8.533-3.413-8.533-8.533V434.2c0-5.12,3.413-8.533,8.533-8.533h238.933
		c5.12,0,8.533,3.413,8.533,8.533v34.133C297.24,473.453,293.827,476.867,288.707,476.867z M58.307,459.8h221.867v-17.067H58.307
		V459.8z"/>
	<path d="M271.64,442.733H66.84c-5.12,0-8.533-3.413-8.533-8.533v-34.133c0-5.12,3.413-8.533,8.533-8.533h204.8
		c5.12,0,8.533,3.413,8.533,8.533V434.2C280.173,439.32,276.76,442.733,271.64,442.733z M75.373,425.667h187.733V408.6H75.373
		V425.667z"/>
	<path d="M169.24,306.2c-33.28,0-59.733-26.453-59.733-59.733V58.733C109.507,25.453,135.96-1,169.24-1s59.733,26.453,59.733,59.733
		v187.733C228.973,279.747,202.52,306.2,169.24,306.2z M169.24,16.067c-23.893,0-42.667,18.773-42.667,42.667v187.733
		c0,23.893,18.773,42.667,42.667,42.667s42.667-18.773,42.667-42.667V58.733C211.907,34.84,193.133,16.067,169.24,16.067z"/>
	<path d="M254.573,408.6H83.907c-5.12,0-8.533-3.413-8.533-8.533V263.533c0-23.893,18.773-42.667,42.667-42.667
		c5.12,0,8.533,3.413,8.533,8.533v17.067c0,11.093,4.267,22.187,12.8,29.867c9.387,9.387,22.187,13.653,35.84,11.947
		c21.333-2.56,36.693-22.187,36.693-44.373V229.4c0-5.12,3.413-8.533,8.533-8.533c23.893,0,42.667,18.773,42.667,42.667v136.533
		C263.107,405.187,259.693,408.6,254.573,408.6z M92.44,391.533h153.6v-128c0-11.093-6.827-20.48-17.067-23.893v5.12
		c0,30.72-22.187,57.173-52.053,61.44c-18.773,2.56-36.693-3.413-50.347-17.067c-11.093-11.947-17.067-26.453-17.067-42.667v-6.827
		c-10.24,3.413-17.067,12.8-17.067,23.893V391.533z"/>
	<path d="M425.24,92.867c-23.893,0-42.667-18.773-42.667-42.667S401.347,7.533,425.24,7.533c23.893,0,42.667,18.773,42.667,42.667
		S449.133,92.867,425.24,92.867z M425.24,24.6c-14.507,0-25.6,11.093-25.6,25.6s11.093,25.6,25.6,25.6
		c14.507,0,25.6-11.093,25.6-25.6S439.747,24.6,425.24,24.6z"/>
	<path d="M396.227,75.8H220.44c-5.12,0-8.533-3.413-8.533-8.533v-8.533c0-7.68-1.707-14.507-5.973-21.333
		c-1.707-2.56-1.707-5.973,0-8.533c1.707-2.56,4.267-4.267,7.68-4.267h182.613c3.413,0,5.973,1.707,7.68,4.267
		c1.707,2.56,1.707,5.973,0,8.533c-3.413,4.267-4.267,8.533-4.267,12.8s0.853,8.533,3.413,12.8c1.707,2.56,1.707,5.973,0,8.533
		C401.347,74.093,398.787,75.8,396.227,75.8z M228.973,58.733h154.453c-0.853-2.56-0.853-5.973-0.853-8.533
		c0-2.56,0-5.973,0.853-8.533H226.413C228.12,46.787,228.973,52.76,228.973,58.733z"/>
	<path d="M194.84,340.333h-51.2c-5.12,0-8.533-3.413-8.533-8.533s3.413-8.533,8.533-8.533h51.2c5.12,0,8.533,3.413,8.533,8.533
		S199.96,340.333,194.84,340.333z"/>
	<path d="M211.907,374.467h-85.333c-5.12,0-8.533-3.413-8.533-8.533s3.413-8.533,8.533-8.533h85.333c5.12,0,8.533,3.413,8.533,8.533
		S217.027,374.467,211.907,374.467z"/>
	<path d="M450.84,161.133h-51.2V75.8h51.2V161.133z M416.707,144.067h17.067v-51.2h-17.067V144.067z"/>
	<path d="M476.44,246.467h-34.133c-5.12,0-8.533-3.413-8.533-8.533v-42.667h-17.067v42.667c0,5.12-3.413,8.533-8.533,8.533H374.04
		c-5.12,0-8.533-3.413-8.533-8.533v-63.147c0-17.067,13.653-30.72,30.72-30.72h58.88c17.067,0,30.72,13.653,30.72,30.72v63.147
		C484.973,243.053,481.56,246.467,476.44,246.467z M450.84,229.4h17.067v-54.613c0-7.68-5.973-13.653-13.653-13.653h-58.88
		c-7.68,0-13.653,5.973-13.653,13.653V229.4h17.067v-42.667c0-5.12,3.413-8.533,8.533-8.533h34.133c5.12,0,8.533,3.413,8.533,8.533
		V229.4H450.84z"/>
	<path d="M169.24,263.533c-5.12,0-8.533-3.413-8.533-8.533V50.2c0-5.12,3.413-8.533,8.533-8.533c5.12,0,8.533,3.413,8.533,8.533V255
		C177.773,260.12,174.36,263.533,169.24,263.533z"/>
</g>
</svg>